<svg width="100" height="100" viewBox="0 0 100 100" fill="none" xmlns="http://www.w3.org/2000/svg">
<circle cx="50" cy="50" r="49.5" fill="#F1FBFF" stroke="white"/>
<g clip-path="url(#clip0_3306_6768)">
<path d="M78.555 38.9949C78.2867 38.1722 77.8485 37.4149 77.2688 36.7724C76.6891 36.1298 75.9809 35.6162 75.19 35.2649L64.205 30.3849C63.6043 30.1176 63.0661 29.7276 62.625 29.2399L54.59 20.2949C54.0111 19.6513 53.3032 19.1366 52.5125 18.7843C51.7217 18.432 50.8657 18.2499 50 18.2499C49.1343 18.2499 48.2783 18.432 47.4875 18.7843C46.6967 19.1366 45.9889 19.6513 45.41 20.2949L37.375 29.2399C36.9339 29.7276 36.3957 30.1176 35.795 30.3849L24.81 35.2649C24.0186 35.6161 23.31 36.1299 22.7301 36.7729C22.1503 37.4159 21.7122 38.1737 21.4444 38.997C21.1765 39.8203 21.0849 40.6908 21.1755 41.5519C21.266 42.413 21.5367 43.2453 21.97 43.9949L27.99 54.3999C28.3209 54.9684 28.5272 55.6007 28.595 56.2549L29.84 68.2149C29.9304 69.0761 30.2008 69.9086 30.6338 70.6584C31.0668 71.4083 31.6526 72.0587 32.3533 72.5674C33.0539 73.0762 33.8537 73.4319 34.7008 73.6115C35.5478 73.7911 36.4232 73.7906 37.27 73.6099L49.025 71.0999C49.6675 70.9599 50.3325 70.9599 50.975 71.0999L62.735 73.6099C63.5815 73.79 64.4564 73.7901 65.3029 73.6102C66.1494 73.4304 66.9487 73.0745 67.6488 72.5658C68.349 72.0571 68.9343 71.4069 69.3669 70.6573C69.7995 69.9078 70.0697 69.0757 70.16 68.2149L71.405 56.2549C71.4728 55.6007 71.6791 54.9684 72.01 54.3999L78.03 43.9949C78.4625 43.2447 78.7327 42.4119 78.8232 41.5507C78.9136 40.6894 78.8222 39.8187 78.555 38.9949ZM29.54 54.1299C29.46 53.9699 29.38 53.8049 29.29 53.6499L23.27 43.2449C22.7385 42.3209 22.5391 41.2429 22.705 40.1899L47.575 48.2749L29.54 54.1299ZM49.25 69.5449C49.07 69.5699 48.89 69.5949 48.71 69.6299L36.955 72.1449C35.9137 72.3618 34.8296 72.219 33.88 71.7399L49.25 50.5849V69.5449ZM49.25 45.9649L38.11 30.6249C38.24 30.4999 38.37 30.3749 38.49 30.2399L46.525 21.2999C47.239 20.5107 48.1997 19.9871 49.25 19.8149V45.9649ZM69.915 56.0999L68.665 68.0599C68.5529 69.1184 68.0818 70.1065 67.33 70.8599L51.965 49.7049L70 55.5599C69.9619 55.7383 69.9335 55.9185 69.915 56.0999ZM51.965 46.8499L63.105 31.5049C63.265 31.5949 63.425 31.6799 63.595 31.7549L74.585 36.6349C75.5554 37.0708 76.3489 37.8237 76.835 38.7699L51.965 46.8499Z" fill="#0C0C0C"/>
<path d="M50 72.4999C49.337 72.4999 48.7011 72.7633 48.2322 73.2322C47.7634 73.701 47.5 74.3369 47.5 74.9999V79.4999C47.5 80.163 47.7634 80.7989 48.2322 81.2677C48.7011 81.7366 49.337 81.9999 50 81.9999C50.663 81.9999 51.2989 81.7366 51.7678 81.2677C52.2366 80.7989 52.5 80.163 52.5 79.4999V74.9999C52.5 74.3369 52.2366 73.701 51.7678 73.2322C51.2989 72.7633 50.663 72.4999 50 72.4999ZM24.065 54.1749L19.785 55.5699C19.4695 55.6687 19.1767 55.829 18.9236 56.0417C18.6705 56.2543 18.462 56.515 18.3104 56.8088C18.1587 57.1025 18.0668 57.4234 18.0399 57.7529C18.0131 58.0824 18.0519 58.414 18.154 58.7284C18.2562 59.0428 18.4197 59.3338 18.6351 59.5846C18.8505 59.8354 19.1135 60.041 19.4088 60.1895C19.7042 60.338 20.0261 60.4264 20.3558 60.4496C20.6856 60.4729 21.0167 60.4305 21.33 60.3249L25.61 58.9299C26.2339 58.7197 26.7496 58.2719 27.0453 57.6837C27.341 57.0955 27.3928 56.4144 27.1893 55.7883C26.9859 55.1622 26.5437 54.6416 25.9587 54.3395C25.3738 54.0375 24.6933 53.9783 24.065 54.1749ZM80.215 55.5699L75.935 54.1749C75.6217 54.0694 75.2906 54.027 74.9608 54.0502C74.6311 54.0735 74.3092 54.1619 74.0138 54.3104C73.7184 54.4589 73.4555 54.6645 73.2401 54.9153C73.0247 55.1661 72.8612 55.4571 72.759 55.7715C72.6569 56.0859 72.6181 56.4175 72.6449 56.747C72.6718 57.0765 72.7637 57.3974 72.9154 57.6911C73.067 57.9848 73.2755 58.2456 73.5286 58.4582C73.7817 58.6709 74.0745 58.8312 74.39 58.9299L78.67 60.3249C79.2983 60.5216 79.9788 60.4624 80.5637 60.1604C81.1487 59.8583 81.5909 59.3377 81.7943 58.7116C81.9978 58.0855 81.946 57.4044 81.6503 56.8162C81.3546 56.228 80.8389 55.7802 80.215 55.5699ZM67.73 28.1249L70.375 24.4849C70.7402 23.9476 70.8818 23.2892 70.7699 22.6492C70.658 22.0092 70.3013 21.4379 69.7754 21.0564C69.2496 20.6748 68.5959 20.5129 67.9527 20.6051C67.3096 20.6972 66.7276 21.0361 66.33 21.5499L63.685 25.1899C63.4801 25.4547 63.3305 25.758 63.2451 26.0817C63.1596 26.4054 63.14 26.7429 63.1875 27.0743C63.235 27.4057 63.3486 27.7242 63.5215 28.0109C63.6944 28.2976 63.9231 28.5467 64.1941 28.7433C64.465 28.9399 64.7727 29.0801 65.0989 29.1555C65.4251 29.231 65.7631 29.2401 66.0929 29.1824C66.4227 29.1248 66.7375 29.0015 67.0187 28.8198C67.3 28.6381 67.5418 28.4019 67.73 28.1249ZM35.76 28.6799C36.2961 28.2905 36.6558 27.7042 36.7598 27.0498C36.8639 26.3954 36.7039 25.7265 36.315 25.1899L33.67 21.5499C33.4818 21.273 33.24 21.0367 32.9587 20.8551C32.6775 20.6734 32.3627 20.5501 32.0329 20.4924C31.7031 20.4348 31.3651 20.4439 31.0389 20.5194C30.7127 20.5948 30.405 20.735 30.1341 20.9316C29.8631 21.1282 29.6344 21.3773 29.4615 21.664C29.2886 21.9506 29.175 22.2691 29.1275 22.6005C29.08 22.932 29.0996 23.2695 29.1851 23.5932C29.2705 23.9169 29.4201 24.2202 29.625 24.4849L32.27 28.1249C32.6603 28.6599 33.2465 29.0185 33.9005 29.1225C34.5545 29.2265 35.223 29.0674 35.76 28.6799Z" fill="#0C0C0C"/>
</g>
<defs>
<clipPath id="clip0_3306_6768">
<rect width="64" height="64" fill="white" transform="translate(18 18)"/>
</clipPath>
</defs>
</svg>
